<?xml version="1.0" encoding="UTF-8" standalone="no"?>
<svg
   xmlns:dc="http://purl.org/dc/elements/1.1/"
   xmlns:cc="http://creativecommons.org/ns#"
   xmlns:rdf="http://www.w3.org/1999/02/22-rdf-syntax-ns#"
   xmlns:svg="http://www.w3.org/2000/svg"
   xmlns="http://www.w3.org/2000/svg"
   xmlns:sodipodi="http://sodipodi.sourceforge.net/DTD/sodipodi-0.dtd"
   xmlns:inkscape="http://www.inkscape.org/namespaces/inkscape"
   inkscape:version="1.0 (4035a4fb49, 2020-05-01)"
   sodipodi:docname="icon-gitlab.svg"
   id="svg23"
   version="1.1"
   viewBox="0 0 45 42"
   height="42px"
   width="45px">
  <metadata
     id="metadata29">
    <rdf:RDF>
      <cc:Work
         rdf:about="">
        <dc:format>image/svg+xml</dc:format>
        <dc:type
           rdf:resource="http://purl.org/dc/dcmitype/StillImage" />
        <dc:title>icon-gitlab</dc:title>
      </cc:Work>
    </rdf:RDF>
  </metadata>
  <defs
     id="defs27">
    <inkscape:path-effect
       fuse_tolerance="0"
       hide_knot="false"
       vertical_pattern="false"
       prop_units="false"
       tang_offset="0"
       normal_offset="0"
       spacing="0"
       scale_y_rel="false"
       prop_scale="1"
       copytype="single_stretched"
       pattern="M 0,5 C 0,2.24 2.24,0 5,0 7.76,0 10,2.24 10,5 10,7.76 7.76,10 5,10 2.24,10 0,7.76 0,5 Z"
       lpeversion="1"
       is_visible="true"
       id="path-effect47"
       effect="skeletal" />
  </defs>
  <sodipodi:namedview
     inkscape:current-layer="top-navigation"
     inkscape:window-maximized="1"
     inkscape:window-y="-8"
     inkscape:window-x="-8"
     inkscape:cy="20.260782"
     inkscape:cx="15.095399"
     inkscape:zoom="14.310494"
     showgrid="false"
     id="namedview25"
     inkscape:window-height="1017"
     inkscape:window-width="1920"
     inkscape:pageshadow="2"
     inkscape:pageopacity="0"
     guidetolerance="10"
     gridtolerance="10"
     objecttolerance="10"
     borderopacity="1"
     bordercolor="#666666"
     pagecolor="#ffffff" />
  <!-- Generator: Sketch 52.6 (67491) - http://www.bohemiancoding.com/sketch -->
  <title
     id="title2">icon-gitlab</title>
  <desc
     id="desc4">Created with Sketch.</desc>
  <g
     fill-rule="evenodd"
     fill="none"
     stroke-width="1"
     stroke="none"
     id="top-navigation">
    <g
       style="image-rendering:auto"
       transform="translate(-645.000000, -94.000000)"
       id="nav-redesign-final-solid">
      <g
         transform="translate(646.000000, 95.000000)"
         id="Group-28">
        <polygon
           points="21.5165333 39.6184889 21.5165333 39.6184889 29.4392 15.5122667 13.5943111 15.5122667"
           fill="#E24329"
           id="Fill-1" />
        <polygon
           points="21.5108889 39.6184889 13.5882222 15.5122667 2.49488889 15.5122667"
           fill="#FC6D26"
           id="Fill-2" />
        <path
           fill="#FCA326"
           id="Fill-3"
           d="M2.49133333,15.5204 L0.0802222222,22.8444 C-0.138,23.5101778 0.0975555556,24.2439556 0.674444444,24.6586222 L21.5068889,39.6266222 L2.49133333,15.5204 Z" />
        <path
           fill="#E24329"
           id="Fill-5"
           d="M2.49395556,15.5204 L13.5957333,15.5204 L8.81795556,1.00173333 C8.57351111,0.258622222 7.50773333,0.258622222 7.25484444,1.00173333 L2.49395556,15.5204 Z" />
        <polygon
           points="21.5165333 39.6184889 29.4392 15.5122667 40.5414222 15.5122667"
           fill="#FC6D26"
           id="Fill-7" />
        <path
           fill="#FCA326"
           id="Fill-9"
           d="M40.5330222,15.5204 L42.9441333,22.8444 C43.1623556,23.5101778 42.9268,24.2439556 42.3499111,24.6586222 L21.5174667,39.6181778 L40.5330222,15.5204 Z" />
        <path
           fill="#E24329"
           id="Fill-11"
           d="M40.5391111,15.5204 L29.4373333,15.5204 L34.2062222,1.00173333 C34.4511111,0.258622222 35.5164444,0.258622222 35.7697778,1.00173333 L40.5391111,15.5204 Z" />
        <polygon
           points="21.5165333 39.6184889 21.5165333 39.6184889 29.4392 15.5122667 13.5943111 15.5122667"
           stroke-linejoin="round"
           stroke-linecap="round"
           stroke-width="2"
           stroke="#251B3F"
           id="Stroke-13" />
        <polygon
           points="21.5108889 39.6184889 13.5882222 15.5122667 2.49488889 15.5122667"
           stroke-linejoin="round"
           stroke-linecap="round"
           stroke-width="2"
           stroke="#251B3F"
           id="Stroke-15" />
        <path
           stroke-linejoin="round"
           stroke-linecap="round"
           stroke-width="2"
           stroke="#251B3F"
           id="Stroke-17"
           d="M2.49133333,15.5204 L0.0802222222,22.8444 C-0.138,23.5101778 0.0975555556,24.2439556 0.674444444,24.6586222 L21.5068889,39.6266222 L2.49133333,15.5204 Z" />
        <path
           stroke-linejoin="round"
           stroke-linecap="round"
           stroke-width="2"
           stroke="#251B3F"
           id="Stroke-19"
           d="M2.49395556,15.5204 L13.5957333,15.5204 L8.81795556,1.00173333 C8.57351111,0.258622222 7.50773333,0.258622222 7.25484444,1.00173333 L2.49395556,15.5204 Z" />
        <polygon
           points="21.5165333 39.6184889 29.4392 15.5122667 40.5414222 15.5122667"
           stroke-linejoin="round"
           stroke-linecap="round"
           stroke-width="2"
           stroke="#251B3F"
           id="Stroke-21" />
        <path
           stroke-linejoin="round"
           stroke-linecap="round"
           stroke-width="2"
           stroke="#251B3F"
           id="Stroke-23"
           d="M40.5330222,15.5204 L42.9441333,22.8444 C43.1623556,23.5101778 42.9268,24.2439556 42.3499111,24.6586222 L21.5174667,39.6181778 L40.5330222,15.5204 Z" />
        <path
           stroke-linejoin="round"
           stroke-linecap="round"
           stroke-width="2"
           stroke="#251B3F"
           id="Stroke-25"
           d="M40.5391111,15.5204 L29.4373333,15.5204 L34.2062222,1.00173333 C34.4511111,0.258622222 35.5164444,0.258622222 35.7697778,1.00173333 L40.5391111,15.5204 Z" />
      </g>
    </g>
    <path
       id="path51"
       d="M 4.9452964,15.421676 C 4.963014,15.373635 5.8854223,12.560103 6.9950925,9.1693841 8.1047627,5.778665 9.0321288,3.0271878 9.0559059,3.0549902 9.0913179,3.0963972 12.768154,14.217233 13.075341,15.21204 l 0.09171,0.296985 H 9.040065 c -3.2721808,0 -4.1203101,-0.01809 -4.0947686,-0.08735 z"
       style="fill:#251b3f;stroke-width:0.0698788" />
    <path
       id="path53"
       d="M 13.161242,27.08662 C 9.6388325,22.621393 6.5016845,18.645709 6.1898022,18.251767 l -0.567059,-0.716257 4.1074187,2e-4 4.1074191,2.01e-4 2.892413,8.80626 c 1.590827,4.843442 2.879637,8.819036 2.864022,8.834652 -0.01562,0.01562 -2.910365,-3.624976 -6.432774,-8.090203 z"
       style="fill:#251b3f;stroke-width:0.0698788" />
    <path
       id="path55"
       d="m 19.291044,27.475772 c -1.76327,-5.371061 -3.219735,-9.804872 -3.23659,-9.852914 -0.02437,-0.06947 1.293851,-0.08735 6.44062,-0.08735 3.90189,0 6.471264,0.02558 6.471264,0.06442 0,0.07956 -6.355879,19.43275 -6.421846,19.554056 -0.02613,0.04804 -1.490178,-4.307151 -3.253448,-9.678212 z"
       style="fill:#251b3f;stroke-width:0.0698788" />
    <path
       id="path57"
       d="M 9.5449735,30.038917 C 5.4929728,27.122125 2.1523748,24.69576 2.1214222,24.646994 c -0.030953,-0.04877 -0.055742,-0.183002 -0.055087,-0.298302 0.00142,-0.250698 1.763378,-5.597077 1.8372608,-5.574883 0.028233,0.0085 2.9468328,3.687599 6.485778,8.175818 3.538944,4.488219 6.482799,8.215427 6.541899,8.282686 0.0591,0.06726 0.079,0.119492 0.04422,0.116075 -0.03478,-0.0034 -3.378513,-2.392679 -7.430514,-5.309471 z"
       style="fill:#251b3f;stroke-width:0.0698788" />
    <path
       id="path59"
       d="m 25.40252,35.206328 c 0,-0.02116 1.301196,-3.997882 2.891548,-8.837172 l 2.891547,-8.798707 4.105354,-0.01803 c 3.290156,-0.01445 4.091719,-5.76e-4 4.036684,0.06988 -1.113569,1.425578 -13.7601,17.449143 -13.827721,17.520173 -0.05358,0.05628 -0.09741,0.08501 -0.09741,0.06386 z"
       style="fill:#251b3f;stroke-width:0.0698788" />
    <path
       id="path61"
       d="m 28.057914,35.321886 c 0,-0.0477 12.736955,-16.209968 12.958445,-16.443328 l 0.151241,-0.159346 0.925661,2.821299 c 0.835756,2.547286 0.917321,2.839599 0.839811,3.009715 -0.05902,0.129543 -2.281191,1.765087 -7.111767,5.23435 -3.864256,2.775264 -7.191851,5.165585 -7.394655,5.311825 -0.202805,0.146241 -0.368736,0.247708 -0.368736,0.225485 z"
       style="fill:#251b3f;stroke-width:0.0698788" />
    <path
       id="path63"
       d="m 31.89979,15.456616 c -0.0027,-0.09664 4.089063,-12.5267128 4.106044,-12.4734909 0.0092,0.028895 0.929018,2.8323247 2.043997,6.229844 1.114979,3.3975189 2.027234,6.2040259 2.027234,6.2366819 0,0.07309 -8.175243,0.08005 -8.177275,0.007 z"
       style="fill:#251b3f;stroke-width:0.0698788;fill-opacity:1" />
    <path
       id="path67"
       d="m 22.270879,41.572818 c -0.12742,-0.0292 -0.30037,-0.115701 -0.384333,-0.192214 C 21.745742,41.252296 18.150474,38.664645 5.7665806,29.778449 3.1723306,27.916918 0.94611323,26.295595 0.81943088,26.17551 0.31834036,25.700517 -0.00625323,24.850913 0.05505443,24.174801 0.07515886,23.953086 0.36659192,22.943951 0.72246652,21.863777 1.3863266,19.848787 3.6776924,12.877218 6.0388645,5.688432 7.2991181,1.8514848 7.4652955,1.3934031 7.6938138,1.1264309 8.4838305,0.20347418 9.9529636,0.31530132 10.545154,1.3434686 c 0.09333,0.1620394 1.200634,3.4314465 2.460675,7.2653489 l 2.290986,6.9707325 7.223846,-0.01779 7.223847,-0.01779 2.308816,-7.0228178 c 1.703479,-5.1815387 2.360739,-7.0936941 2.506852,-7.2931457 0.585454,-0.79917257 1.655721,-0.97483365 2.454889,-0.40291682 0.534497,0.38250692 0.224198,-0.48984189 4.924872,13.84539532 0.787669,2.402084 1.78348,5.420847 2.212914,6.708364 0.778636,2.334482 0.780783,2.342771 0.778211,3.004788 -0.0023,0.587577 -0.02519,0.708006 -0.199396,1.048182 -0.10825,0.211383 -0.311484,0.504782 -0.451633,0.651999 -0.183137,0.192372 -18.52634,13.446252 -21.162892,15.291246 -0.313445,0.219341 -0.53065,0.270099 -0.846262,0.19776 z m 3.547376,-14.126856 3.267741,-9.945392 -6.534903,-0.01783 c -3.594197,-0.0098 -6.549221,-0.0035 -6.566721,0.01399 -0.0175,0.0175 0.854888,2.729833 1.93864,6.027406 1.083752,3.297573 2.55632,7.778678 3.272373,9.958011 0.716054,2.179332 1.313889,3.950449 1.328522,3.935816 0.01463,-0.01463 1.49709,-4.502034 3.294348,-9.971999 z M 17.31371,35.616646 C 17.27529,35.568606 14.295776,31.787289 10.692576,27.213722 7.0893756,22.640155 4.0701089,18.823602 3.9830935,18.732492 L 3.8248837,18.566838 2.9090049,21.364019 c -0.5037334,1.538449 -0.9158789,2.908343 -0.9158789,3.044209 0,0.200309 0.049559,0.288046 0.2620455,0.46392 0.4014448,0.332274 14.9979735,10.820411 15.0674345,10.826502 0.03353,0.0029 0.02953,-0.03396 -0.0089,-0.082 z m 18.186295,-5.496653 c 6.206216,-4.45558 7.422079,-5.35533 7.499223,-5.549496 0.08758,-0.220436 0.04706,-0.369509 -0.830874,-3.056862 -0.50762,-1.553819 -0.944429,-2.849445 -0.970686,-2.879169 -0.04351,-0.04925 -13.418444,16.829983 -13.481394,17.01359 -0.01495,0.04361 0.06366,0.01413 0.174697,-0.06551 0.111036,-0.07964 3.5351,-2.53779 7.609034,-5.462556 z M 16.849631,26.510243 13.88931,17.50057 9.7171199,17.482549 C 7.0435204,17.471 5.5533622,17.48888 5.5684066,17.532322 5.6047389,17.637241 19.761016,35.568852 19.787,35.542869 c 0.01262,-0.01262 -1.309193,-4.077306 -2.937369,-9.032626 z m 15.603664,-0.04932 c 3.811828,-4.83387 6.94842,-8.835304 6.970205,-8.892075 0.03466,-0.09033 -0.48059,-0.103219 -4.125655,-0.103219 -2.290896,0 -4.165264,0.01559 -4.165264,0.03464 0,0.0297 -4.593454,14.031829 -5.593046,17.049172 -0.310931,0.93857 -0.3297,1.028756 -0.181784,0.873485 0.09072,-0.09523 3.283716,-4.128134 7.095544,-8.962006 z M 6.4478988,15.456695 c -0.7974917,-0.01121 -1.4499849,-0.03819 -1.4499849,-0.05996 0,-0.04898 1.1549701,-3.562866 2.7709644,-8.4303899 0.6730725,-2.0273583 1.2491825,-3.686106 1.2802444,-3.686106 0.045666,0 1.9142683,5.5809169 3.7493403,11.1980759 0.185197,0.566891 0.364483,1.030712 0.398412,1.030712 0.03393,0 0.04375,-0.04676 0.02182,-0.103906 -0.02193,-0.05715 -0.956721,-2.8951 -2.077313,-6.3065602 C 10.020787,5.6870984 9.0826799,2.8724324 9.0566982,2.8437452 9.0307159,2.815058 8.0858338,5.6137035 6.9569594,9.0629576 5.8280858,12.512211 4.8906788,15.373635 4.8738328,15.421676 c -0.024006,0.06846 0.2996489,0.0839 1.4967109,0.07138 l 1.5273399,-0.01597 z m 27.4274242,-3.2e-5 c -1.081759,-0.01123 -1.904197,-0.04721 -1.904197,-0.0833 0,-0.073 2.313234,-7.138342 3.341633,-10.2063947 l 0.690981,-2.0614242 1.228591,3.7385151 c 1.78675,5.4369568 2.774856,8.4776398 2.774856,8.5390208 0,0.02962 -0.872612,0.06274 -1.939137,0.07359 l -1.939136,0.01973 2.009015,0.01632 c 1.310301,0.01064 2.009015,-0.0081 2.009015,-0.05391 0,-0.08656 -4.049945,-12.4342652 -4.123521,-12.5720276 -0.03252,-0.060886 -0.555355,1.4325929 -1.357707,3.8782727 -0.717653,2.1875086 -1.662181,5.0542959 -2.098948,6.3706369 l -0.794123,2.393349 2.003438,-0.0163 2.003437,-0.0163 z"
       style="fill:#000000;fill-opacity:1;stroke-width:0.0698788" />
    <path
       id="path71"
       d="m 12.508303,12.158909 c -0.319617,-0.390238 -0.4871,-0.834442 -0.698788,-1.257818 -0.04454,-0.08907 -0.178846,-0.187144 -0.209636,-0.279515 -0.03061,-0.09184 -0.01685,-0.199979 -0.06988,-0.279515 -0.251231,-0.3768472 -0.691821,-0.887523 -0.838545,-1.3276974 -0.06988,-0.2096363 0.03494,-0.069879 0,-0.2096363 -0.02329,-0.069879 -0.04659,-0.1397576 -0.06988,-0.2096364 -0.02329,0 -0.05946,0.020834 -0.06988,0 -0.06857,-0.1371426 -0.03264,-0.3402036 -0.06988,-0.4891515 -0.06334,-0.2533607 -0.147157,-0.5187483 -0.209636,-0.7686667 -0.06029,-0.2411503 0.06029,-0.5275163 0,-0.7686666 -0.04175,-0.1669892 -0.07311,-0.285976 -0.139758,-0.4192728 -0.03125,-0.062502 0.03125,-0.1471349 0,-0.2096363 -0.01042,-0.020834 -0.05946,0.020834 -0.06988,0 C 10.001232,5.8170708 10.057856,5.6508023 9.9926667,5.5204242 9.8134412,5.1619734 9.8083049,4.7324281 9.6432727,4.4023636 9.6055411,4.3269003 9.5035151,3.9071759 9.5035151,4.0529697"
       style="fill:none;stroke:#000000;stroke-width:1px;stroke-linecap:butt;stroke-linejoin:miter;stroke-opacity:1" />
    <path
       id="path73"
       d="m 13.167051,15.509025 c 0.0079,0.09065 -0.302455,-0.590347 -0.379233,-0.974237 -0.05279,-0.263934 -0.02499,-0.539134 -0.139757,-0.768667 -0.08282,-0.165628 0.05889,-0.452231 0,-0.628909 -0.07749,-0.232469 -0.09964,-0.548679 -0.209637,-0.768667 -0.04436,-0.08872 0.03096,-0.256522 0,-0.349394 -0.04355,-0.130653 -0.164961,-0.285246 -0.209636,-0.419272 -0.01473,-0.0442 0.01473,-0.09556 0,-0.139758 -0.03101,-0.09304 -0.164822,-0.189885 -0.209637,-0.279515 -0.02083,-0.04167 0.01473,-0.09556 0,-0.139758 -0.0531,-0.1593 -0.137776,-0.275552 -0.209636,-0.419272 -0.04949,-0.09899 -0.03614,-0.248179 -0.06988,-0.349394 -0.02083,-0.0625 -0.110294,-0.08083 -0.139757,-0.139758 -0.03125,-0.0625 0.0221,-0.1433433 0,-0.2096361 -0.03,-0.089986 -0.179641,-0.1895289 -0.209637,-0.2795152 -0.0221,-0.066293 0.03125,-0.1471349 0,-0.2096364 -0.05747,-0.114933 -0.238434,-0.296031 -0.279515,-0.4192727 -0.01473,-0.044195 0.0113,-0.094563 0,-0.1397576 -0.03671,-0.1468563 -0.161812,-0.2059216 -0.209636,-0.3493939 -0.01317,-0.039522 0.02807,-0.1815703 0,-0.2096364 -0.03683,-0.036829 -0.116465,-0.023293 -0.139758,-0.069879 -0.03125,-0.062501 0.0221,-0.1433436 0,-0.2096364 -0.0582,-0.1745996 -0.150318,-0.311198 -0.209636,-0.4891515 -0.02695,-0.080849 0.03754,-0.204425 0,-0.2795152 -0.115878,-0.2317568 -0.279515,-0.5505697 -0.279515,-0.8385454 0,-0.1243263 -0.106909,-0.1481187 -0.139758,-0.2795152 -0.07173,-0.2869209 -0.08438,-0.5181608 -0.2096361,-0.7686666 -0.031251,-0.062501 0.016948,-0.141844 0,-0.2096364 C 9.891865,5.047339 9.8125055,4.5311927 9.7830303,4.4722424 c -0.010417,-0.020834 -0.059462,0.020834 -0.069879,0 -0.012797,-0.025595 0.029396,-0.2501188 0,-0.2795151 -0.016471,-0.016471 -0.053408,0.016471 -0.069879,0 -0.022921,-0.022921 -0.1136839,-0.2273679 -0.1397576,-0.2795152 -0.020834,-0.041668 0.020834,-0.09809 0,-0.1397576 C 9.4740517,3.7145276 9.393221,3.6926239 9.3637576,3.633697 9.2731266,3.4524351 9.3596247,3.4199277 9.1541212,3.2144242 9.1216339,3.1819369 8.9731645,2.8775498 8.9444848,2.9349091 8.8732546,3.0773696 8.9462138,3.3507238 8.874606,3.4939394 8.839923,3.5633055 8.8123518,3.76583 8.8047273,3.7734545 8.7678979,3.8102839 8.701799,3.806504 8.6649697,3.8433333 c -0.032941,0.032941 0.032941,0.1068164 0,0.1397576 -0.016471,0.016471 -0.053408,-0.016471 -0.069879,0 -0.044325,0.044325 0.02909,0.2213349 0,0.2795152 -0.1454094,0.2908187 0.00482,-0.074703 -0.1397576,0.069879 -0.043361,0.043361 -0.048021,0.8166878 -0.069879,0.8385455 -0.036829,0.036829 -0.1029282,0.033049 -0.1397575,0.069879 -0.044325,0.044325 0.02909,0.2213349 0,0.2795151 C 8.1795836,5.65265 8.0967622,5.7879425 8.0360602,5.9396975 7.9824732,6.0736648 8.0322202,6.2967668 7.9661812,6.428849 7.9315192,6.498174 7.8505509,6.5661036 7.8264236,6.6384853 c -0.0047,0.014102 0.023249,0.2562658 0,0.2795152 -0.016471,0.016471 -0.053408,-0.016471 -0.069879,0 -0.0554,0.0554 0.03555,0.2782946 0,0.3493939 -0.1454093,0.2908188 0.00482,-0.074703 -0.1397575,0.069879 -0.032941,0.032941 0.032941,0.1068164 0,0.1397576 -0.016471,0.016471 -0.053408,-0.016471 -0.069879,0 -0.047118,0.047118 0.037824,0.2227785 0,0.2795151 -0.036545,0.054817 -0.1032126,0.08494 -0.1397576,0.1397576 -0.029994,0.04499 0.01739,0.1574666 0,0.2096364 -0.056265,0.1687943 -0.1526824,0.3182895 -0.2096364,0.4891515 -0.042569,0.1277081 -0.00784,0.2253064 -0.069879,0.3493939 -0.035254,0.070508 0.043299,0.214567 0,0.2795152 C 7.0728189,9.3062261 6.9621952,9.3452459 6.918,9.4336363 6.884467,9.5007033 6.940369,9.646044 6.918,9.7131515 6.883863,9.8155628 6.7490493,9.8706097 6.7083636,9.9926667 6.6261326,10.23936 6.5414486,10.536133 6.4288485,10.761333 c -0.029464,0.05893 -0.1102941,0.08083 -0.1397576,0.139758 -0.02909,0.05818 0.044325,0.23519 0,0.279515 -0.016471,0.01647 -0.053408,-0.01647 -0.069879,0 -0.056971,0.05697 -0.2949856,0.589971 -0.3493939,0.698788 -0.031251,0.0625 0.022098,0.143343 0,0.209636 -0.031058,0.09317 -0.095019,0.190039 -0.1397576,0.279515 -0.037269,0.07454 0.037269,0.204978 0,0.279516 -0.064858,0.129716 -0.00901,0.297526 -0.069879,0.419272 -0.065146,0.130292 -0.164153,0.282823 -0.2096364,0.419273 -0.055007,0.165021 0.00761,0.33418 -0.069879,0.489152 -0.0064,0.0128 -0.117395,0.07267 -0.1397576,0.139757 -0.057386,0.172157 0.00848,0.550547 -0.1397576,0.698788 -0.016471,0.01647 -0.053408,-0.01647 -0.069879,0 -0.046586,0.04659 0.046586,0.232929 0,0.279515 -0.016471,0.01647 -0.053408,-0.01647 -0.069879,0 -0.032941,0.03294 0.020834,0.09809 0,0.139758 -0.029464,0.05893 -0.1189237,0.07726 -0.1397575,0.139757 -0.016471,0.04941 0.069879,0.191842 0.069879,0.139758 0,-0.02329 -0.093172,0 -0.069879,0 2.1552958,0 3.9218903,0 6.0095757,0 0.40724,0 0.835524,-0.03645 1.187939,0.139757 0.131599,0.0658 0.348041,-0.04704 0.489152,0 0.07735,0.02578 0.249991,0.125894 0.349394,0.06988 0.109187,-0.06153 0.206236,-0.142468 0.309354,-0.213702 z"
       style="fill:none;stroke:#000000;stroke-width:1px;stroke-linecap:butt;stroke-linejoin:miter;stroke-opacity:1" />
    <path
       id="path75"
       d="m 31.772645,15.509041 c 0.120071,-0.173125 0.03058,-0.440353 0.09208,-0.624859 0.03304,-0.09911 0.169653,-0.09977 0.209637,-0.139758 0.05968,-0.05968 0.16597,-0.262063 0.209636,-0.349394 0.02759,-0.05518 -0.01964,-0.150704 0,-0.209636 0.06933,-0.207979 0.188565,-0.37713 0.279515,-0.55903 0.08239,-0.164779 0.05737,-0.394252 0.139758,-0.559031 0.25405,-0.508101 0.419272,-1.103561 0.419272,-1.677091 0,-0.421054 0.180237,-0.790824 0.279516,-1.187939 0.04924,-0.196963 0.04813,-0.4456562 0.139757,-0.6289091 0.03756,-0.075117 0.108567,-0.1316593 0.139758,-0.2096363 0.06036,-0.1509065 -0.002,-0.4151808 0.06988,-0.5590303 0.02946,-0.058927 0.110295,-0.080831 0.139758,-0.1397576 0.02083,-0.041668 -0.0173,-0.096504 0,-0.1397576 0.159471,-0.3986779 0.107891,-0.044157 0.209636,-0.3493939 0.06253,-0.1875881 0.116547,-0.4427302 0.209637,-0.6289091 0.05309,-0.1061748 0.172596,-0.1683938 0.209636,-0.2795152 0.01473,-0.044195 -0.02083,-0.09809 0,-0.1397575 0.01042,-0.020834 0.05341,0.01647 0.06988,0 0.04941,-0.049412 -0.03876,-0.1514937 0,-0.2096364 0.02889,-0.043337 0.102928,-0.033049 0.139758,-0.069879 0.03294,-0.032941 -0.02083,-0.09809 0,-0.1397576 0.123307,-0.2466143 0.25847,-0.4958961 0.349393,-0.7686666 0.02496,-0.074867 0.03727,-0.2142982 0.06988,-0.2795152 0.01042,-0.020834 0.06251,0.022098 0.06988,0 0.0221,-0.066293 -0.01695,-0.141844 0,-0.2096364 0.102235,-0.4089388 0.02571,0.1582264 0.139758,-0.069879 0.07715,-0.1543027 -0.01576,-0.500446 0.06988,-0.6289091 0.03654,-0.054818 0.103213,-0.08494 0.139758,-0.1397576 0.110621,-0.1659309 0.06197,-0.8227268 0.139758,-0.978303 0.01042,-0.020834 0.05341,0.016471 0.06988,0 0.04659,-0.046586 -0.04659,-0.2329293 0,-0.2795152 0.01647,-0.016471 0.05341,0.016471 0.06988,0 0.03294,-0.032941 -0.02083,-0.09809 0,-0.1397576 0.02946,-0.058927 0.110294,-0.080831 0.139758,-0.1397575 0.01473,-0.029463 0.04659,-0.093172 0.06988,-0.069879 0.246208,0.246207 0.46409,1.7219079 0.489152,1.7469697 0.03683,0.036829 0.102928,0.033049 0.139758,0.069879 0.02905,0.029052 0.04453,0.4829699 0.06988,0.5590303 0.07565,0.2269355 0.21849,0.3626741 0.349394,0.5590303 0.082,0.1230044 0.02085,0.4119276 0.06988,0.5590303 0.01042,0.031251 0.04659,0.046586 0.06988,0.069879 0.02329,0.046586 0.05725,0.089228 0.06988,0.1397575 0.01695,0.067792 -0.0221,0.1433436 0,0.2096364 0.06646,0.1993787 0.196626,0.3932534 0.279515,0.5590303 0.03727,0.074537 -0.03727,0.2049778 0,0.2795151 0.02946,0.058927 0.110294,0.080831 0.139757,0.1397576 0.03125,0.062502 -0.01695,0.141844 0,0.2096364 0.06574,0.2629455 0.21184,0.4979663 0.279516,0.7686666 0.01747,0.069879 -0.03494,0.1397576 0,0.2096364 0.02946,0.058927 0.103212,0.08494 0.139757,0.1397576 0.04476,0.067146 -0.0133,0.2696169 0,0.3493939 0.05122,0.3073304 0.102693,0.3615495 0.209636,0.6289094 0.08402,0.210038 0.0327,0.484674 0.139758,0.698788 0.02946,0.05893 0.103213,0.08494 0.139758,0.139757 0.113631,0.170448 0.111807,0.433251 0.209636,0.62891 0.05208,0.104169 0.157552,0.175346 0.209636,0.279515 0.02083,0.04167 -0.01473,0.09556 0,0.139757 0.0769,0.230694 0.189452,0.473629 0.279516,0.698788 0.03119,0.07798 0.113199,0.129962 0.139757,0.209637 0.02096,0.06289 -0.02096,0.146745 0,0.209636 0.06027,0.180806 0.619769,1.73783 0.628909,1.74697 0.01647,0.01647 0.05946,-0.02083 0.06988,0 0.01754,0.03508 0.03108,0.52795 0,0.55903 -0.0047,0.0047 -1.52603,0 -1.537333,0 -0.389766,0 -1.50142,-0.105143 -1.816849,0 -0.16223,0.05408 -0.336195,0.01889 -0.489151,0.06988 -0.718109,0.239369 -1.458586,0.209636 -2.236122,0.209636 -0.333637,0 -1.167264,0.100063 -1.467454,0 -0.128899,-0.04297 -0.263203,-0.10074 -0.419273,-0.139758 -0.04519,-0.0113 -0.106816,0.03294 -0.139757,0 -0.01647,-0.01647 0,-0.04659 0,-0.06988 -0.100573,-0.02464 -0.201146,-0.04929 -0.301719,-0.07393 z"
       style="fill:none;stroke:#000000;stroke-width:1px;stroke-linecap:butt;stroke-linejoin:miter;stroke-opacity:1" />
    <path
       id="path81"
       d="m 31.185615,17.570449 8.156143,0.03901"
       style="fill:none;stroke:#000000;stroke-width:1px;stroke-linecap:butt;stroke-linejoin:miter;stroke-opacity:1" />
    <path
       id="path83"
       d="M 25.40252,35.206328 31.185615,17.570449"
       style="fill:none;stroke:#000000;stroke-width:1px;stroke-linecap:butt;stroke-linejoin:miter;stroke-opacity:1" />
    <path
       id="path85"
       d="M 26.274424,34.310485 39.341758,17.609459"
       style="fill:none;stroke:#000000;stroke-width:1px;stroke-linecap:butt;stroke-linejoin:miter;stroke-opacity:1" />
    <path
       id="path87"
       d="m 24.527455,37.944182 1.746969,-3.633697"
       style="fill:none;stroke:#000000;stroke-width:1px;stroke-linecap:butt;stroke-linejoin:miter;stroke-opacity:1" />
    <path
       id="path89"
       d="M 28.057914,35.321886 41.1676,18.719212"
       style="fill:none;stroke:#000000;stroke-width:1px;stroke-linecap:butt;stroke-linejoin:miter;stroke-opacity:1" />
    <path
       id="path91"
       d="M 42.975454,24.387697 41.1676,18.719212"
       style="fill:none;stroke:#000000;stroke-width:1px;stroke-linecap:butt;stroke-linejoin:miter;stroke-opacity:1" />
    <path
       id="path93"
       d="M 39.341758,17.609459 37.315273,17.260061"
       style="fill:none;stroke:#000000;stroke-width:1px;stroke-linecap:butt;stroke-linejoin:miter;stroke-opacity:1" />
    <path
       id="path95"
       d="M 41.857394,19.146788 37.315273,17.260061"
       style="fill:none;stroke:#000000;stroke-width:1px;stroke-linecap:butt;stroke-linejoin:miter;stroke-opacity:1" />
    <path
       id="path97"
       d="M 42.975454,24.387697 28.057914,35.321886"
       style="fill:none;stroke:#000000;stroke-width:1px;stroke-linecap:butt;stroke-linejoin:miter;stroke-opacity:1" />
    <path
       id="path99"
       d="m 26.414182,36.756242 3.074666,-2.86503"
       style="fill:none;stroke:#000000;stroke-width:1px;stroke-linecap:butt;stroke-linejoin:miter;stroke-opacity:1" />
    <path
       id="path101"
       d="M 22.291333,37.245394 29.085996,17.50057"
       style="fill:none;stroke:#000000;stroke-width:1px;stroke-linecap:butt;stroke-linejoin:miter;stroke-opacity:1" />
    <path
       id="path103"
       d="m 29.085996,17.50057 -13.153632,0.108885 6.358969,19.635939"
       style="fill:none;stroke:#000000;stroke-width:1px;stroke-linecap:butt;stroke-linejoin:miter;stroke-opacity:1" />
    <path
       id="path105"
       d="m 13.837581,17.535911 6.147752,18.591422"
       style="fill:none;stroke:#000000;stroke-width:1px;stroke-linecap:butt;stroke-linejoin:miter;stroke-opacity:1" />
    <path
       id="path107"
       d="M 19.356424,34.799636 5.6227432,17.53551"
       style="fill:none;stroke:#000000;stroke-width:1px;stroke-linecap:butt;stroke-linejoin:miter;stroke-opacity:1" />
    <path
       id="path109"
       d="M 3.8248837,18.566838 17.313706,35.61665"
       style="fill:none;stroke:#000000;stroke-width:1px;stroke-linecap:butt;stroke-linejoin:miter;stroke-opacity:1" />
    <path
       id="path111"
       d="M 3.5638182,19.286545 1.8867273,25.366"
       style="fill:none;stroke:#000000;stroke-width:1px;stroke-linecap:butt;stroke-linejoin:miter;stroke-opacity:1" />
    <path
       id="path113"
       d="M 1.8867273,25.366 16.421515,35.009273"
       style="fill:none;stroke:#000000;stroke-width:1px;stroke-linecap:butt;stroke-linejoin:miter;stroke-opacity:1" />
    <path
       id="path115"
       d="M 2.5156364,24.946727 6.918,28.021394"
       style="fill:none;stroke:#000000;stroke-width:1px;stroke-linecap:butt;stroke-linejoin:miter;stroke-opacity:1" />
    <path
       id="path117"
       d="M 3.8248837,18.566838 C 3.242568,18.926034 2.8380295,18.99623 3.5638182,19.286545"
       style="fill:none;stroke:#000000;stroke-width:1px;stroke-linecap:butt;stroke-linejoin:miter;stroke-opacity:1" />
    <path
       id="path119"
       d="M 4.6818788,21.103394 3.8248837,18.566838"
       style="fill:none;stroke:#000000;stroke-width:1px;stroke-linecap:butt;stroke-linejoin:miter;stroke-opacity:1" />
    <path
       id="path121"
       d="M 10.844432,30.674602 C 8.7754332,29.298928 7.0497481,28.140507 7.0095761,28.100336 c -0.050801,-0.0508 -0.028039,-0.13025 0.074757,-0.260935 0.081289,-0.103341 0.1321475,-0.213216 0.1130198,-0.244165 -0.087935,-0.142281 -4.3712207,-3.076672 -4.4341768,-3.037763 -0.039194,0.02422 -0.072057,0.0186 -0.073029,-0.01249 -9.714e-4,-0.03109 0.2584536,-1.007672 0.5765,-2.170176 l 0.5782663,-2.113644 0.166794,0.506431 c 0.091737,0.278538 0.1727525,0.514075 0.180035,0.523416 0.00728,0.0093 0.2099164,-0.04943 0.4502973,-0.130611 0.2413122,-0.08149 0.4609839,-0.120396 0.4904818,-0.08686 0.029384,0.0334 2.1383087,2.702152 4.6864993,5.930552 2.5481912,3.2284 4.6968242,5.94057 4.7747402,6.027045 0.07792,0.08648 0.112601,0.154408 0.07708,0.150963 -0.03552,-0.0034 -1.757407,-1.131817 -3.826405,-2.507492 z"
       style="fill:#000000;fill-opacity:1;stroke-width:0.0698788" />
    <path
       id="path123"
       d="M 12.578417,25.42259 C 9.5429236,21.608179 6.8919846,18.273144 6.6874414,18.011403 l -0.3718968,-0.475893 3.6911394,0.0032 c 2.935587,0.0025 3.653766,0.02039 3.508558,0.08735 l -0.18258,0.0842 2.402264,7.264299 c 1.321245,3.995363 2.393332,7.291092 2.382417,7.323838 -0.01092,0.03275 -2.503432,-3.061342 -5.538926,-6.875754 z"
       style="fill:#000000;fill-opacity:1;stroke-width:0.0698788" />
    <path
       id="path125"
       d="m 19.484569,26.847162 -2.800751,-8.647804 0.498548,-0.045 c 0.274201,-0.02475 2.897781,-0.05924 5.830178,-0.07665 4.862525,-0.02887 5.327844,-0.02183 5.288601,0.07994 -0.02367,0.06138 -1.366693,3.963661 -2.984507,8.671745 -1.617814,4.708083 -2.961694,8.583871 -2.986399,8.612863 -0.02471,0.02899 -1.305257,-3.838798 -2.84567,-8.59509 z"
       style="fill:#000000;fill-opacity:1;stroke-width:0.0698788" />
    <path
       id="path127"
       d="m 26.814033,32.629328 c 0.01858,-0.05765 1.097679,-3.351561 2.398002,-7.319803 l 2.364223,-7.214985 2.485964,0.0095 c 1.367281,0.0052 2.858277,0.02879 3.313326,0.05241 l 0.827361,0.04293 -5.602675,7.162576 c -3.081472,3.939417 -5.651569,7.209744 -5.711328,7.267394 -0.09658,0.09317 -0.104899,0.09317 -0.07487,0 z"
       style="fill:#000000;fill-opacity:1;stroke-width:0.0698788" />
    <path
       id="path129"
       d="m 31.181517,32.252683 c 0.08066,-0.140207 9.76626,-12.401454 9.783274,-12.384901 0.05155,0.05015 1.347534,4.218087 1.332385,4.284987 -0.01807,0.07981 -11.037767,8.197044 -11.128042,8.197044 -0.02392,0 -0.01835,-0.04371 0.01238,-0.09713 z"
       style="fill:#000000;fill-opacity:1;stroke-width:0.0698788" />
    <rect
       y="16.520399"
       x="3.4939556"
       height="10.03354"
       width="38.922466"
       id="rect131"
       style="fill:#000000;fill-opacity:1" />
    <rect
       y="21.033516"
       x="1.8168485"
       height="4.5421214"
       width="5.1011515"
       id="rect133"
       style="fill:#000000;fill-opacity:1" />
    <rect
       y="26.48406"
       x="5.2409091"
       height="2.0963635"
       width="34.59"
       id="rect135"
       style="fill:#000000;fill-opacity:1" />
    <rect
       y="22.431091"
       x="40.389938"
       height="3.1445456"
       width="3.4240606"
       id="rect137"
       style="fill:#000000;fill-opacity:1" />
    <rect
       y="28.580423"
       x="26.973211"
       height="2.4457576"
       width="10.41194"
       id="rect139"
       style="fill:#000000;fill-opacity:1" />
    <rect
       y="30.257515"
       x="29.558727"
       height="2.8650303"
       width="4.3324847"
       id="rect141"
       style="fill:#000000;fill-opacity:1" />
    <rect
       y="30.257515"
       x="25.156364"
       height="2.6553941"
       width="4.4023638"
       id="rect143"
       style="fill:#000000;fill-opacity:1" />
    <rect
       y="24.527454"
       x="13.905879"
       height="11.040849"
       width="13.416727"
       id="rect145"
       style="fill:#000000;fill-opacity:1" />
    <rect
       y="27.741879"
       x="7.8264241"
       height="2.306"
       width="7.7565455"
       id="rect147"
       style="fill:#000000;fill-opacity:1" />
    <rect
       y="27.392485"
       x="10.132424"
       height="5.3806667"
       width="4.9613938"
       id="rect149"
       style="fill:#000000;fill-opacity:1" />
  </g>
</svg>
